<svg xmlns="http://www.w3.org/2000/svg" viewBox="0 0 7.3 200.69"><defs><style>.cls-1{fill:#e2b77d;}</style></defs><title>资源 1</title><g id="图层_2" data-name="图层 2"><g id="视听馆"><rect class="cls-1" x="3.15" y="132.68" width="1" height="0.99"/><rect class="cls-1" x="3.15" y="135.66" width="1" height="0.99"/><rect class="cls-1" x="3.15" y="129.69" width="1" height="0.99"/><rect class="cls-1" x="3.15" y="147.6" width="1" height="0.99"/><rect class="cls-1" x="3.15" y="138.64" width="1" height="0.99"/><rect class="cls-1" x="3.15" y="144.61" width="1" height="1"/><rect class="cls-1" x="3.15" y="141.63" width="1" height="0.99"/><rect class="cls-1" x="3.15" y="126.71" width="1" height="1"/><rect class="cls-1" x="3.15" y="111.79" width="1" height="0.99"/><rect class="cls-1" x="3.15" y="105.82" width="1" height="0.99"/><rect class="cls-1" x="3.15" y="102.83" width="1" height="0.99"/><rect class="cls-1" x="3.15" y="120.74" width="1" height="0.99"/><rect class="cls-1" x="3.15" y="99.85" width="1" height="0.99"/><rect class="cls-1" x="3.15" y="123.72" width="1" height="0.99"/><rect class="cls-1" x="3.15" y="117.75" width="1" height="0.99"/><rect class="cls-1" x="3.15" y="114.77" width="1" height="0.99"/><rect class="cls-1" x="3.15" y="180.42" width="1" height="1"/><rect class="cls-1" x="3.15" y="177.44" width="1" height="0.99"/><rect class="cls-1" x="3.15" y="183.41" width="1" height="0.99"/><rect class="cls-1" x="3.15" y="174.46" width="1" height="0.99"/><rect class="cls-1" x="3.15" y="189.38" width="1" height="0.99"/><rect class="cls-1" x="3.15" y="192.36" width="1" height="0.99"/><rect class="cls-1" x="3.15" y="186.39" width="1" height="0.99"/><rect class="cls-1" x="3.15" y="156.55" width="1" height="0.99"/><rect class="cls-1" x="3.15" y="150.58" width="1" height="0.99"/><rect class="cls-1" x="3.15" y="159.53" width="1" height="1"/><rect class="cls-1" x="3.15" y="153.57" width="1" height="0.99"/><rect class="cls-1" x="3.15" y="162.52" width="1" height="1"/><rect class="cls-1" x="3.15" y="168.49" width="1" height="0.99"/><rect class="cls-1" x="3.15" y="171.47" width="1" height="0.99"/><rect class="cls-1" x="3.15" y="165.5" width="1" height="0.99"/><rect class="cls-1" x="3.15" y="108.8" width="1" height="1"/><rect class="cls-1" x="3.15" y="37.18" width="1" height="1"/><rect class="cls-1" x="3.15" y="34.19" width="1" height="1"/><rect class="cls-1" x="3.15" y="49.12" width="1" height="0.99"/><rect class="cls-1" x="3.15" y="31.21" width="1" height="0.99"/><rect class="cls-1" x="3.15" y="46.13" width="1" height="0.99"/><rect class="cls-1" x="3.15" y="40.16" width="1" height="0.99"/><rect class="cls-1" x="3.15" y="43.15" width="1" height="0.99"/><rect class="cls-1" x="3.15" y="28.23" width="1" height="0.99"/><rect class="cls-1" x="3.15" y="25.24" width="1" height="0.99"/><rect class="cls-1" x="3.15" y="10.32" width="1" height="0.99"/><rect class="cls-1" x="3.15" y="7.33" width="1" height="0.99"/><rect class="cls-1" x="3.15" y="13.3" width="1" height="0.99"/><rect class="cls-1" x="3.15" y="16.29" width="1" height="1"/><rect class="cls-1" x="3.15" y="22.26" width="1" height="0.99"/><rect class="cls-1" x="3.15" y="19.27" width="1" height="1"/><rect class="cls-1" x="3.15" y="55.08" width="1" height="1"/><rect class="cls-1" x="3.15" y="75.97" width="1" height="0.99"/><rect class="cls-1" x="3.15" y="84.93" width="1" height="0.99"/><rect class="cls-1" x="3.15" y="78.96" width="1" height="0.99"/><rect class="cls-1" x="3.15" y="81.94" width="1" height="0.99"/><rect class="cls-1" x="3.15" y="87.91" width="1" height="1"/><rect class="cls-1" x="3.15" y="93.88" width="1" height="0.99"/><rect class="cls-1" x="3.15" y="90.9" width="1" height="1"/><rect class="cls-1" x="3.15" y="58.07" width="1" height="0.99"/><rect class="cls-1" x="3.15" y="61.05" width="1" height="0.99"/><rect class="cls-1" x="3.15" y="52.1" width="1" height="1"/><rect class="cls-1" x="3.15" y="96.86" width="1" height="0.99"/><rect class="cls-1" x="3.15" y="72.99" width="1" height="1"/><rect class="cls-1" x="3.15" y="70" width="1" height="1"/><rect class="cls-1" x="3.15" y="64.04" width="1" height="0.99"/><rect class="cls-1" x="3.15" y="67.02" width="1" height="0.99"/><polygon class="cls-1" points="5.46 196.42 5.43 194.31 3.62 195.39 1.77 194.37 1.81 196.48 0 197.56 1.84 198.58 1.87 200.69 3.68 199.61 5.53 200.64 5.49 198.53 7.3 197.44 5.46 196.42"/><polygon class="cls-1" points="1.84 4.27 1.87 6.38 3.68 5.3 5.53 6.33 5.49 4.21 7.3 3.13 5.46 2.11 5.43 0 3.62 1.08 1.77 0.06 1.81 2.17 0 3.25 1.84 4.27"/></g></g></svg>